<svg width="192" height="194" viewBox="0 0 192 194" fill="none" xmlns="http://www.w3.org/2000/svg">
<ellipse cx="8.56736" cy="8.64938" rx="8.56638" ry="8.64938" fill="#151414"/>
<ellipse cx="8.56638" cy="67.4655" rx="8.56638" ry="8.64938" fill="#151414"/>
<ellipse cx="8.56638" cy="126.281" rx="8.56638" ry="8.64938" fill="#151414"/>
<ellipse cx="8.56638" cy="185.097" rx="8.56638" ry="8.64938" fill="#151414"/>
<ellipse cx="66.8183" cy="8.64938" rx="8.56638" ry="8.64938" fill="#151414"/>
<ellipse cx="66.8183" cy="67.4655" rx="8.56638" ry="8.64938" fill="#151414"/>
<ellipse cx="66.8183" cy="126.281" rx="8.56638" ry="8.64938" fill="#151414"/>
<ellipse cx="66.8183" cy="185.097" rx="8.56638" ry="8.64938" fill="#151414"/>
<ellipse cx="125.07" cy="8.64938" rx="8.56638" ry="8.64938" fill="#151414"/>
<ellipse cx="125.07" cy="67.4655" rx="8.56638" ry="8.64938" fill="#151414"/>
<ellipse cx="125.07" cy="126.281" rx="8.56638" ry="8.64938" fill="#151414"/>
<ellipse cx="125.07" cy="185.097" rx="8.56638" ry="8.64938" fill="#151414"/>
<ellipse cx="183.321" cy="8.64938" rx="8.56638" ry="8.64938" fill="#151414"/>
<ellipse cx="183.321" cy="67.4655" rx="8.56638" ry="8.64938" fill="#151414"/>
<ellipse cx="183.321" cy="126.281" rx="8.56638" ry="8.64938" fill="#151414"/>
<ellipse cx="183.321" cy="185.097" rx="8.56638" ry="8.64938" fill="#151414"/>
</svg>
